<svg xmlns="http://www.w3.org/2000/svg" viewBox="0 0 512 512" role="img" aria-label="さまちゃんと凍結の女王">
  <rect width="512" height="512" rx="96" fill="#08162d"/>
  <rect x="28" y="28" width="456" height="456" rx="76" fill="#153b5d" stroke="#bdefff" stroke-width="16"/>
  <path d="M256 78v356M101 167l310 178M101 345l310-178M184 96l72 72 72-72M184 416l72-72 72 72M95 252l99 27-27 99M417 252l-99 27 27 99M95 260l99-27-27-99M417 260l-99-27 27-99" fill="none" stroke="#83eaff" stroke-width="22" stroke-linecap="square" stroke-linejoin="miter"/>
  <circle cx="256" cy="256" r="94" fill="#0b2443" stroke="#e8fdff" stroke-width="12"/>
  <text x="256" y="306" text-anchor="middle" font-family="sans-serif" font-size="142" font-weight="900" fill="#ffffff">さ</text>
</svg>
